<svg width="512" height="512" viewBox="0 0 512 512" fill="none" xmlns="http://www.w3.org/2000/svg">
<g clip-path="url(#clip0_1_2)">
<rect width="512" height="512" rx="64" fill="#0A0033"/>
<path d="M388.349 388.349C401.982 374.716 401.982 352.613 388.349 338.98L174.417 125.048C160.784 111.415 138.681 111.415 125.048 125.048C111.415 138.681 111.415 160.784 125.048 174.417L338.98 388.349C352.613 401.982 374.716 401.982 388.349 388.349Z" fill="#39FF14"/>
<path d="M248.456 314.281L174.417 388.321C160.784 401.953 138.681 401.953 125.048 388.321C111.415 374.688 111.415 352.584 125.048 338.951L199.087 264.912L248.456 314.281ZM306.053 256.684L256.684 306.053L207.315 256.684L256.684 207.315L306.053 256.684ZM338.98 125.02C352.612 111.387 374.716 111.387 388.349 125.02C401.982 138.653 401.982 160.756 388.349 174.389L314.281 248.456L264.912 199.087L338.98 125.02Z" fill="#39FF14"/>
</g>
<defs>
<clipPath id="clip0_1_2">
<rect width="512" height="512" fill="white"/>
</clipPath>
</defs>
</svg>
